<svg xmlns="http://www.w3.org/2000/svg" viewBox="0 0 100 140">
    <g>
        <path d="M50 0C22.4 0 0 22.4 0 50s22.4 50 50 50 50-22.4 50-50S77.6 0 50 0zm0 90c-22.1 0-40-17.9-40-40S27.9 10 50 10s40 17.9 40 40-17.9 40-40 40z"/>
        <path d="M50 20c-16.6 0-30 13.4-30 30s13.4 30 30 30 30-13.4 30-30S66.6 20 50 20zm0 50c-11 0-20-9-20-20s9-20 20-20 20 9 20 20-9 20-20 20z"/>
        <path d="M50 40c-5.5 0-10 4.5-10 10s4.5 10 10 10 10-4.5 10-10-4.5-10-10-10zm0 15c-2.8 0-5-2.2-5-5s2.2-5 5-5 5 2.2 5 5-2.2 5-5 5z"/>
        <text x="50%" y="95%" font-size="20" text-anchor="middle" fill="black">A</text>
        <text x="10%" y="10%" font-size="20" text-anchor="middle" fill="black">A</text>
        <text x="90%" y="10%" font-size="20" text-anchor="middle" fill="black">A</text>
    </g>
</svg>